<?xml version="1.0" encoding="UTF-8"?><svg xmlns="http://www.w3.org/2000/svg" xmlns:xlink="http://www.w3.org/1999/xlink" viewBox="0 0 48 48" version="1.1"><g id="surface1"><path d="M16.457 2.988c-.21.004-.441.086-.7.29-.636-.247-1.25-.333-1.804.167-.851-.11-1.125.118-1.336.383-.187-.004-1.394-.191-1.953.637-1.394-.164-1.836.82-1.336 1.738-.285.442-.578.879.086 1.723-.234.469-.09.972.465 1.59-.145.66.144 1.125.66 1.488-.098.898.824 1.422 1.102 1.61.105.523.328 1.019 1.379 1.292.175.785.808.918 1.421 1.082-2.027 1.18-3.765 2.73-3.754 6.535l-.296.532c-2.329 1.414-4.418 5.96-1.149 9.656.215 1.152.574 1.984.895 2.902.476 3.707 3.59 5.442 4.414 5.649 1.203.914 2.484 1.785 4.219 2.394 1.636 1.688 3.41 2.332 5.19 2.328h.08c1.78.004 3.554-.64 5.19-2.328 1.735-.61 3.016-1.48 4.223-2.394.82-.207 3.938-1.942 4.41-5.649.32-.918.68-1.75.895-2.902 3.27-3.695 1.18-8.242-1.149-9.656l-.297-.532c.012-3.804-1.726-5.355-3.753-6.535.613-.164 1.246-.297 1.421-1.082 1.055-.273 1.274-.77 1.38-1.297.277-.183 1.199-.707 1.105-1.609.515-.36.805-.824.656-1.484.555-.614.7-1.125.465-1.59.668-.844.371-1.278.086-1.723.5-.918.058-1.902-1.336-1.738-.555-.828-1.766-.64-1.953-.637-.207-.265-.485-.492-1.336-.383-.55-.5-1.168-.414-1.805-.168-.754-.597-1.254-.12-1.824.063-.91-.3-1.121.11-1.57.277-.996-.21-1.297.246-1.778.73l-.554-.011c-1.504.887-2.25 2.691-2.516 3.617-.262-.93-1.008-2.73-2.512-3.617l-.554.012c-.48-.485-.782-.942-1.778-.73-.449-.169-.66-.579-1.57-.278-.379-.121-.723-.363-1.129-.352z" fill="#37474F"/><path d="M13.465 6.887c3.988 2.054 6.305 3.715 7.574 5.133-.648 2.605-4.039 2.726-5.281 2.652.254-.117.469-.262.543-.48-.313-.22-1.418-.02-2.188-.454.297-.062.434-.12.575-.34-.727-.234-1.512-.433-1.973-.816.246.004.48.055.805-.172-.653-.351-1.348-.629-1.887-1.164.336-.012.699-.004.805-.129a7.356 7.356 0 0 1-1.52-1.23c.473.058.672.008.785-.075-.45-.46-1.02-.851-1.293-1.421.352.12.672.168.902-.012-.152-.344-.808-.55-1.187-1.356.367.036.762.079.84 0-.176-.699-.469-1.09-.754-1.496.789-.011 1.984.004 1.93-.062l-.489-.5c.774-.207 1.563.031 2.133.21.258-.202-.004-.456-.316-.718a7.72 7.72 0 0 1 1.781.445c.285-.257-.188-.515-.414-.773 1.012.191 1.441.46 1.867.73.309-.296.02-.55-.191-.808.765.285 1.156.648 1.57 1.008.14-.188.36-.329.098-.782.543.313.949.68 1.25 1.09.336-.215.203-.504.203-.773.562.457.922.945 1.355 1.422.09-.063.168-.282.235-.625 1.343 1.3 3.242 4.586.488 5.886-2.344-1.933-5.145-3.34-8.246-4.39z" fill="#64DD17"/><path d="M34.621 6.887c-3.984 2.054-6.305 3.715-7.57 5.133.648 2.605 4.043 2.726 5.281 2.652-.254-.117-.465-.262-.543-.48.313-.22 1.414-.02 2.188-.454-.297-.062-.434-.12-.575-.34.73-.234 1.516-.433 1.977-.816-.25.004-.484.055-.809-.172.653-.351 1.348-.629 1.89-1.164-.339-.012-.702-.004-.808-.129a7.356 7.356 0 0 0 1.52-1.23c-.473.058-.672.008-.785-.075.449-.46 1.02-.851 1.293-1.421-.352.12-.672.168-.903-.012.153-.344.813-.55 1.192-1.356-.371.036-.762.079-.84 0 .172-.699.465-1.09.754-1.496-.79-.011-1.985.004-1.934-.062l.489-.5c-.77-.207-1.56.031-2.133.21-.258-.202.008-.456.32-.718a7.431 7.431 0 0 0-1.781.445c-.29-.257.183-.515.414-.773-1.016.187-1.442.46-1.867.73-.313-.296-.02-.55.187-.808-.762.285-1.156.648-1.57 1.008-.14-.188-.356-.329-.094-.782-.543.309-.95.68-1.254 1.09-.332-.215-.2-.504-.2-.773-.562.457-.92.945-1.358 1.422-.086-.063-.165-.282-.23-.625-1.349 1.3-3.243 4.586-.49 5.886 2.34-1.933 5.138-3.34 8.24-4.39z" fill="#64DD17"/><path d="M28.871 33.426c.016 2.433-2.11 4.414-4.75 4.43-2.637.011-4.785-1.95-4.8-4.383v-.047c-.012-2.434 2.113-4.414 4.75-4.43 2.64-.012 4.788 1.95 4.8 4.383v.047z" fill="#FF4081"/><path d="M21.332 20.848c1.98 1.293 2.336 4.23.797 6.562-1.54 2.328-4.39 3.164-6.367 1.867-1.98-1.297-2.336-4.234-.797-6.562 1.539-2.328 4.39-3.164 6.367-1.867z" fill="#FF4081"/><path d="M26.676 20.61c-1.98 1.296-2.336 4.234-.797 6.562 1.539 2.332 4.39 3.168 6.367 1.871 1.98-1.297 2.34-4.234.8-6.566-1.538-2.329-4.394-3.165-6.37-1.868z" fill="#FF4081"/><path d="M11.441 22.965c2.137-.57.723 8.84-1.015 8.066-1.91-1.539-2.528-6.043 1.015-8.066z" fill="#FF4081"/><path d="M36.137 22.848c-2.14-.57-.723 8.84 1.015 8.066 1.91-1.539 2.528-6.043-1.015-8.066z" fill="#FF4081"/><path d="M28.875 15.84c3.688-.625 6.758 1.566 6.633 5.562-.121 1.535-7.992-5.336-6.633-5.562z" fill="#FF4081"/><path d="M18.688 15.719c-3.688-.621-6.754 1.57-6.633 5.566.12 1.535 7.992-5.336 6.633-5.566z" fill="#FF4081"/><path d="M23.984 14.79c-2.203-.06-4.312 1.632-4.32 2.612-.004 1.192 1.742 2.41 4.332 2.442 2.649.02 4.34-.977 4.348-2.203.011-1.395-2.407-2.875-4.36-2.852z" fill="#FF4081"/><path d="M24.117 39.223c1.918-.086 4.492.617 4.5 1.547.031.906-2.336 2.949-4.625 2.906-2.375.105-4.699-1.942-4.668-2.649-.039-1.043 2.887-1.851 4.793-1.804z" fill="#FF4081"/><path d="M17.031 33.703c1.367 1.645 1.989 4.54.848 5.39-1.078.653-3.695.384-5.559-2.288-1.254-2.246-1.093-4.528-.21-5.2 1.316-.804 3.355.278 4.921 2.098z" fill="#FF4081"/><path d="M30.934 33.184c-1.48 1.73-2.301 4.886-1.223 5.906 1.027.789 3.797.68 5.84-2.156 1.484-1.907.988-5.09.14-5.938-1.261-.969-3.07.274-4.757 2.188z" fill="#FF4081"/></g><metadata><rdf:RDF xmlns:rdf="http://www.w3.org/1999/02/22-rdf-syntax-ns#" xmlns:rdfs="http://www.w3.org/2000/01/rdf-schema#" xmlns:dc="http://purl.org/dc/elements/1.1/"><rdf:Description about="https://iconscout.com/legal#licenses" dc:title="raspberry,pi" dc:description="raspberry,pi" dc:publisher="Iconscout" dc:date="2017-12-15" dc:format="image/svg+xml" dc:language="en"><dc:creator><rdf:Bag><rdf:li>Icons8</rdf:li></rdf:Bag></dc:creator></rdf:Description></rdf:RDF></metadata></svg>