<svg id="svg" xmlns="http://www.w3.org/2000/svg" xmlns:xlink="http://www.w3.org/1999/xlink" width="400" height="194.36241610738256" viewBox="0, 0, 400,194.36241610738256"><g id="svgg"><path id="path0" d="M237.408 62.439 C 237.357 62.573,237.338 78.163,237.365 97.085 L 237.415 131.487 297.473 131.487 L 357.532 131.487 357.532 96.890 L 357.532 62.293 297.516 62.245 C 249.605 62.206,237.482 62.245,237.408 62.439 M163.380 72.962 C 162.578 73.117,162.065 73.347,161.679 73.727 L 161.127 74.271 161.127 98.248 L 161.127 122.225 161.698 122.795 C 162.892 123.989,169.781 124.013,171.050 122.828 L 171.627 122.289 171.577 98.062 L 171.526 73.836 171.065 73.488 C 170.120 72.776,165.866 72.485,163.380 72.962 M261.905 72.952 C 262.654 73.095,263.463 73.334,263.703 73.484 L 264.140 73.757 264.140 98.268 L 264.140 122.779 263.320 123.148 C 262.047 123.722,255.800 123.700,254.810 123.118 L 254.130 122.719 254.081 98.293 L 254.032 73.868 254.555 73.523 C 255.681 72.780,259.464 72.486,261.905 72.952 M185.811 73.059 C 184.130 73.348,183.331 74.029,182.915 75.527 C 182.474 77.116,182.632 122.379,183.080 122.827 C 184.202 123.949,190.070 124.038,191.551 122.955 C 191.979 122.642,192.226 96.864,191.875 89.116 C 191.788 87.191,191.779 85.442,191.855 85.228 L 191.992 84.840 192.132 85.228 C 192.659 86.689,195.650 92.949,197.194 95.821 C 197.682 96.730,198.543 98.348,199.107 99.417 C 199.671 100.486,200.441 101.929,200.819 102.624 C 201.831 104.489,203.069 106.805,203.937 108.455 C 204.358 109.257,205.032 110.525,205.435 111.273 C 205.838 112.021,206.562 113.377,207.043 114.286 C 207.776 115.669,208.716 117.425,209.801 119.436 C 211.681 122.924,212.825 123.494,217.979 123.508 L 221.866 123.518 222.741 122.933 C 224.535 121.731,224.386 123.964,224.444 97.528 L 224.496 74.260 223.926 73.622 L 223.356 72.983 219.987 72.983 C 216.268 72.983,215.519 73.181,215.253 74.233 C 215.184 74.508,215.152 82.360,215.184 91.683 C 215.236 107.337,215.193 109.552,214.853 108.531 C 214.419 107.230,209.731 97.852,207.188 93.197 C 206.896 92.663,206.198 91.351,205.636 90.282 C 205.075 89.213,204.334 87.813,203.989 87.172 C 203.644 86.531,202.944 85.219,202.433 84.257 C 201.922 83.294,201.196 81.939,200.819 81.244 C 200.442 80.549,199.698 79.150,199.166 78.134 C 196.756 73.536,196.005 73.094,190.415 72.983 C 188.364 72.943,186.293 72.977,185.811 73.059 M117.266 73.324 C 116.395 74.514,116.169 78.629,116.886 80.219 C 117.421 81.406,117.622 81.438,124.401 81.438 C 129.670 81.438,130.390 81.475,130.494 81.746 C 130.559 81.915,130.612 91.107,130.612 102.173 L 130.612 122.293 131.198 122.840 C 132.428 123.989,139.201 124.055,140.415 122.929 L 140.914 122.468 140.933 103.654 C 140.943 93.306,141.009 84.096,141.079 83.188 L 141.205 81.535 147.434 81.438 C 154.433 81.329,154.453 81.325,154.871 79.929 C 155.261 78.628,155.170 75.020,154.720 73.971 L 154.338 73.081 135.891 73.081 C 121.357 73.081,117.405 73.132,117.266 73.324 M351.271 73.424 C 351.949 74.173,352.228 77.600,351.780 79.687 C 351.423 81.354,351.545 81.326,344.227 81.438 L 337.901 81.535 337.804 102.127 L 337.707 122.719 337.055 123.099 C 335.345 124.098,329.174 123.825,327.697 122.686 C 327.643 122.645,327.556 113.369,327.502 102.073 L 327.405 81.535 321.088 81.438 C 317.614 81.385,314.625 81.269,314.446 81.180 C 313.285 80.606,313.042 74.637,314.126 73.330 C 314.499 72.881,350.863 72.973,351.271 73.424 M297.765 85.844 C 302.444 86.983,306.461 90.074,307.952 93.683 C 308.151 94.164,308.422 94.820,308.556 95.141 C 309.563 97.560,309.883 99.777,309.886 104.373 C 309.890 108.614,309.889 108.615,309.006 112.051 C 308.896 112.478,308.552 113.381,308.242 114.056 C 307.931 114.732,307.677 115.352,307.677 115.434 C 307.677 116.289,303.610 120.716,302.074 121.534 C 301.681 121.742,300.967 122.134,300.486 122.403 C 300.005 122.673,299.349 122.961,299.028 123.043 C 298.707 123.126,297.833 123.365,297.085 123.574 C 294.168 124.388,288.127 124.517,285.520 123.820 C 278.902 122.051,274.963 118.213,273.608 112.213 C 272.894 109.053,272.828 108.434,272.836 105.053 C 272.846 100.851,273.276 98.562,274.677 95.238 C 275.313 93.728,275.483 93.426,276.448 92.079 C 277.667 90.378,279.823 88.509,281.644 87.574 C 282.440 87.166,283.178 86.771,283.285 86.696 C 283.392 86.621,284.048 86.405,284.742 86.215 C 285.437 86.025,286.224 85.777,286.492 85.664 C 288.026 85.016,294.808 85.124,297.765 85.844 M288.979 93.269 C 284.703 94.683,282.993 98.020,282.993 104.949 C 282.993 111.450,284.818 115.110,288.533 116.058 C 294.932 117.692,298.962 114.664,299.733 107.643 C 300.368 101.863,299.249 96.936,296.795 94.696 C 295.089 93.139,291.404 92.466,288.979 93.269 " stroke="none" fill="#fafbfa" fill-rule="evenodd"></path><path id="path1" d="M0.000 97.182 L 0.000 194.363 200.000 194.363 L 400.000 194.363 400.000 97.182 L 400.000 0.000 200.000 0.000 L 0.000 0.000 0.000 97.182 M357.532 96.890 L 357.532 131.487 297.473 131.487 L 237.415 131.487 237.365 97.085 C 237.338 78.163,237.357 62.573,237.408 62.439 C 237.482 62.245,249.605 62.206,297.516 62.245 L 357.532 62.293 357.532 96.890 M169.121 72.915 C 169.937 73.039,170.811 73.297,171.065 73.488 L 171.526 73.836 171.577 98.062 L 171.627 122.289 171.050 122.828 C 169.781 124.013,162.892 123.989,161.698 122.795 L 161.127 122.225 161.127 98.248 L 161.127 74.271 161.679 73.727 C 162.620 72.800,165.968 72.435,169.121 72.915 M256.256 72.963 C 255.608 73.081,254.843 73.333,254.555 73.523 L 254.032 73.868 254.081 98.293 L 254.130 122.719 254.810 123.118 C 255.800 123.700,262.047 123.722,263.320 123.148 L 264.140 122.779 264.140 98.268 L 264.140 73.757 263.703 73.484 C 262.568 72.776,258.747 72.508,256.256 72.963 M195.258 73.585 C 196.995 74.406,197.551 75.054,199.166 78.134 C 199.698 79.150,200.442 80.549,200.819 81.244 C 201.196 81.939,201.922 83.294,202.433 84.257 C 202.944 85.219,203.644 86.531,203.989 87.172 C 204.334 87.813,205.075 89.213,205.636 90.282 C 206.198 91.351,206.896 92.663,207.188 93.197 C 209.731 97.852,214.419 107.230,214.853 108.531 C 215.193 109.552,215.236 107.337,215.184 91.683 C 215.152 82.360,215.184 74.508,215.253 74.233 C 215.519 73.181,216.268 72.983,219.987 72.983 L 223.356 72.983 223.926 73.622 L 224.496 74.260 224.444 97.528 C 224.386 123.964,224.535 121.731,222.741 122.933 L 221.866 123.518 217.979 123.508 C 212.825 123.494,211.681 122.924,209.801 119.436 C 208.716 117.425,207.776 115.669,207.043 114.286 C 206.562 113.377,205.838 112.021,205.435 111.273 C 205.032 110.525,204.358 109.257,203.937 108.455 C 203.069 106.805,201.831 104.489,200.819 102.624 C 200.441 101.929,199.671 100.486,199.107 99.417 C 198.543 98.348,197.682 96.730,197.194 95.821 C 195.650 92.949,192.659 86.689,192.132 85.228 L 191.992 84.840 191.855 85.228 C 191.779 85.442,191.788 87.191,191.875 89.116 C 192.226 96.864,191.979 122.642,191.551 122.955 C 190.070 124.038,184.202 123.949,183.080 122.827 C 182.632 122.379,182.474 77.116,182.915 75.527 C 183.555 73.222,184.598 72.868,190.415 72.983 C 193.990 73.054,194.190 73.079,195.258 73.585 M154.720 73.971 C 155.170 75.020,155.261 78.628,154.871 79.929 C 154.453 81.325,154.433 81.329,147.434 81.438 L 141.205 81.535 141.079 83.188 C 141.009 84.096,140.943 93.306,140.933 103.654 L 140.914 122.468 140.415 122.929 C 139.201 124.055,132.428 123.989,131.198 122.840 L 130.612 122.293 130.612 102.173 C 130.612 91.107,130.559 81.915,130.494 81.746 C 130.390 81.475,129.670 81.438,124.401 81.438 C 117.622 81.438,117.421 81.406,116.886 80.219 C 116.169 78.629,116.395 74.514,117.266 73.324 C 117.405 73.132,121.357 73.081,135.891 73.081 L 154.338 73.081 154.720 73.971 M314.126 73.330 C 313.042 74.637,313.285 80.606,314.446 81.180 C 314.625 81.269,317.614 81.385,321.088 81.438 L 327.405 81.535 327.502 102.073 C 327.556 113.369,327.643 122.645,327.697 122.686 C 329.174 123.825,335.345 124.098,337.055 123.099 L 337.707 122.719 337.804 102.127 L 337.901 81.535 344.227 81.438 C 351.545 81.326,351.423 81.354,351.780 79.687 C 352.228 77.600,351.949 74.173,351.271 73.424 C 350.863 72.973,314.499 72.881,314.126 73.330 M289.018 85.325 C 287.896 85.398,286.759 85.551,286.492 85.664 C 286.224 85.777,285.437 86.025,284.742 86.215 C 284.048 86.405,283.392 86.621,283.285 86.696 C 283.178 86.771,282.440 87.166,281.644 87.574 C 279.237 88.810,276.305 91.712,275.276 93.878 C 273.439 97.746,272.847 100.453,272.836 105.053 C 272.828 108.434,272.894 109.053,273.608 112.213 C 274.963 118.213,278.902 122.051,285.520 123.820 C 288.127 124.517,294.168 124.388,297.085 123.574 C 297.833 123.365,298.707 123.126,299.028 123.043 C 299.349 122.961,300.005 122.673,300.486 122.403 C 300.967 122.134,301.681 121.742,302.074 121.534 C 303.610 120.716,307.677 116.289,307.677 115.434 C 307.677 115.352,307.931 114.732,308.242 114.056 C 308.552 113.381,308.896 112.478,309.006 112.051 C 309.889 108.615,309.890 108.614,309.886 104.373 C 309.883 99.777,309.563 97.560,308.556 95.141 C 308.422 94.820,308.151 94.164,307.952 93.683 C 305.507 87.766,298.558 84.698,289.018 85.325 M295.044 93.649 C 298.181 95.144,299.598 97.969,299.841 103.207 C 300.311 113.363,296.214 118.019,288.533 116.058 C 281.785 114.336,280.644 97.871,287.014 94.138 C 289.443 92.714,292.670 92.518,295.044 93.649 " stroke="none" fill="#64a47c" fill-rule="evenodd"></path></g></svg>